<svg width="225" height="225" viewBox="0 0 225 225" fill="none" xmlns="http://www.w3.org/2000/svg">
<path d="M112.5 50.495L112.809 61.825C113.558 89.3187 135.659 111.436 163.152 112.205L173.697 112.5L163.152 112.795C135.659 113.564 113.558 135.681 112.809 163.175L112.5 174.505L112.191 163.175C111.442 135.681 89.3409 113.564 61.8478 112.795L51.3029 112.5L61.8478 112.205C89.3409 111.436 111.442 89.3187 112.191 61.825L112.5 50.495Z" fill="#AFD7B6"/>
<path d="M129.223 113.243C129.223 149.268 100.401 178.46 64.8616 178.46C29.3218 178.46 0.5 149.268 0.5 113.243C0.5 77.2176 29.3218 48.0248 64.8616 48.0248C100.401 48.0248 129.223 77.2176 129.223 113.243Z" stroke="black"/>
<path d="M181.259 65.7178C181.259 101.743 152.437 130.936 116.897 130.936C81.3576 130.936 52.5358 101.743 52.5358 65.7178C52.5358 29.6928 81.3576 0.5 116.897 0.5C152.437 0.5 181.259 29.6928 181.259 65.7178Z" stroke="black"/>
<path d="M181.259 159.282C181.259 195.307 152.437 224.5 116.897 224.5C81.3576 224.5 52.5358 195.307 52.5358 159.282C52.5358 123.257 81.3576 94.0645 116.897 94.0645C152.437 94.0645 181.259 123.257 181.259 159.282Z" stroke="black"/>
<path d="M224.5 117.698C224.5 153.723 195.678 182.916 160.138 182.916C124.599 182.916 95.7769 153.723 95.7769 117.698C95.7769 81.673 124.599 52.4802 160.138 52.4802C195.678 52.4802 224.5 81.673 224.5 117.698Z" stroke="black"/>
</svg>
