<svg width="60" height="60" viewBox="0 0 60 60" fill="none" xmlns="http://www.w3.org/2000/svg">
<circle cx="30" cy="30" r="30" fill="black"/>
<path d="M14.1455 27.4396C16.3829 25.2023 18.1603 23.4248 19.4778 22.1073C20.8037 20.7815 21.6116 19.9818 21.9016 19.7084C23.186 18.54 24.197 17.8191 24.9344 17.5456C25.6636 17.2639 26.3183 17.1147 26.8983 17.0982C28.1661 17.0899 29.2475 17.5332 30.1424 18.4281C31.0291 19.3148 31.4973 20.4044 31.547 21.6971C31.5636 22.0949 31.5221 22.4926 31.4227 22.8904C33.022 21.7883 34.6958 21.2497 36.4443 21.2745C38.3418 21.2994 39.9826 22.0037 41.3664 23.3875C42.7751 24.7962 43.554 26.4452 43.7032 28.3345C43.8937 30.9613 42.7834 33.613 40.372 36.2895C39.7588 36.969 39.1373 37.6236 38.5076 38.2534L31.7334 45.0275L14.1455 27.4396ZM28.4147 25.4011L29.1232 24.8418L29.3221 24.6429C29.9767 23.9883 30.304 23.1804 30.304 22.2192C30.304 21.1916 29.9311 20.305 29.1854 19.5592C28.2739 18.6477 27.1801 18.3411 25.904 18.6394C25.2576 18.7886 24.7149 19.0413 24.2757 19.3976C23.8365 19.7374 23.4967 20.0108 23.2564 20.218C22.7593 20.6489 22.1336 21.2414 21.3796 21.9954L37.1527 37.7686L38.5324 36.3889C39.9411 34.9802 40.9148 33.6585 41.4534 32.4239C42.1495 30.9986 42.4022 29.5692 42.2116 28.1357C42.0293 26.7767 41.5155 25.6746 40.6703 24.8294C39.8251 23.9842 38.9882 23.3958 38.1595 23.0644C37.3309 22.7329 36.4774 22.6003 35.599 22.6666C33.8009 22.7909 32.0442 23.7107 30.3289 25.426L29.5458 26.3582C29.2807 26.6234 29.0321 26.7643 28.8001 26.7808C28.568 26.7974 28.3816 26.7353 28.2407 26.5944C27.901 26.2546 27.959 25.8569 28.4147 25.4011Z" fill="white"/>
</svg>
