<svg width="33" height="33" viewBox="0 0 33 33" fill="none" xmlns="http://www.w3.org/2000/svg">
<path d="M29.4104 16.4958C29.404 19.672 28.2383 22.7365 26.1324 25.114C24.0264 27.4916 21.125 29.0186 17.9729 29.4083C17.9026 29.4153 17.8315 29.4075 17.7643 29.3857C17.6971 29.3638 17.6351 29.3283 17.5823 29.2813C17.5295 29.2344 17.4869 29.177 17.4574 29.1128C17.4278 29.0486 17.4118 28.979 17.4104 28.9083V19.4958H20.4104C20.5472 19.4961 20.6825 19.4683 20.8081 19.4142C20.9337 19.3601 21.0468 19.2808 21.1406 19.1812C21.2343 19.0816 21.3066 18.9639 21.353 18.8352C21.3994 18.7066 21.4189 18.5698 21.4104 18.4333C21.3883 18.1748 21.2689 17.9342 21.0763 17.7602C20.8838 17.5862 20.6324 17.4917 20.3729 17.4958H17.4104V14.4958C17.4104 13.9654 17.6211 13.4567 17.9962 13.0816C18.3713 12.7066 18.88 12.4958 19.4104 12.4958H21.4104C21.5472 12.4961 21.6825 12.4683 21.8081 12.4142C21.9337 12.3601 22.0468 12.2808 22.1406 12.1812C22.2343 12.0816 22.3066 11.9639 22.353 11.8352C22.3994 11.7066 22.4189 11.5698 22.4104 11.4333C22.3883 11.1748 22.2689 10.9342 22.0763 10.7602C21.8838 10.5862 21.6324 10.4917 21.3729 10.4958H19.4104C18.3495 10.4958 17.3321 10.9173 16.582 11.6674C15.8318 12.4176 15.4104 13.435 15.4104 14.4958V17.4958H12.4104C12.2737 17.4956 12.1383 17.5234 12.0127 17.5775C11.8871 17.6316 11.774 17.7109 11.6802 17.8105C11.5865 17.9101 11.5142 18.0278 11.4678 18.1564C11.4214 18.2851 11.4019 18.4219 11.4104 18.5583C11.4325 18.8169 11.5519 19.0575 11.7445 19.2315C11.937 19.4055 12.1884 19.5 12.4479 19.4958H15.4104V28.9083C15.4108 28.9784 15.3964 29.0478 15.3682 29.112C15.34 29.1761 15.2986 29.2337 15.2467 29.2808C15.1949 29.328 15.1337 29.3637 15.0671 29.3857C15.0006 29.4076 14.9301 29.4154 14.8604 29.4083C8.2604 28.6083 3.1604 22.8708 3.4229 16.0083C3.57026 12.6193 5.03647 9.42213 7.50857 7.09923C9.98067 4.77632 13.2628 3.51171 16.6545 3.57533C20.0461 3.63896 23.2785 5.02577 25.6617 7.43976C28.045 9.85375 29.3903 13.1037 29.4104 16.4958V16.4958Z" fill="black"/>
</svg>
