<svg width="33" height="33" viewBox="0 0 33 33" fill="none" xmlns="http://www.w3.org/2000/svg">
<path d="M16.7134 20.5242C18.9225 20.5242 20.7134 18.7334 20.7134 16.5242C20.7134 14.3151 18.9225 12.5242 16.7134 12.5242C14.5042 12.5242 12.7134 14.3151 12.7134 16.5242C12.7134 18.7334 14.5042 20.5242 16.7134 20.5242Z" fill="black"/>
<path d="M22.2134 4.02423H11.2134C9.35686 4.02423 7.57639 4.76173 6.26363 6.07448C4.95088 7.38724 4.21338 9.16772 4.21338 11.0242V22.0242C4.21338 23.8807 4.95088 25.6612 6.26363 26.974C7.57639 28.2867 9.35686 29.0242 11.2134 29.0242H22.2134C24.0699 29.0242 25.8504 28.2867 27.1631 26.974C28.4759 25.6612 29.2134 23.8807 29.2134 22.0242V11.0242C29.2134 9.16772 28.4759 7.38724 27.1631 6.07448C25.8504 4.76173 24.0699 4.02423 22.2134 4.02423V4.02423ZM16.7134 22.5242C15.5267 22.5242 14.3667 22.1723 13.38 21.513C12.3933 20.8538 11.6242 19.9167 11.1701 18.8203C10.716 17.724 10.5972 16.5176 10.8287 15.3537C11.0602 14.1898 11.6316 13.1207 12.4707 12.2816C13.3099 11.4425 14.379 10.871 15.5428 10.6395C16.7067 10.408 17.9131 10.5268 19.0095 10.981C20.1058 11.4351 21.0429 12.2041 21.7022 13.1908C22.3615 14.1775 22.7134 15.3375 22.7134 16.5242C22.7134 18.1155 22.0812 19.6417 20.956 20.7669C19.8308 21.8921 18.3047 22.5242 16.7134 22.5242ZM23.2134 11.5242C22.9167 11.5242 22.6267 11.4363 22.38 11.2714C22.1334 11.1066 21.9411 10.8723 21.8276 10.5983C21.714 10.3242 21.6843 10.0226 21.7422 9.7316C21.8001 9.44062 21.9429 9.17335 22.1527 8.96357C22.3625 8.75379 22.6298 8.61093 22.9207 8.55305C23.2117 8.49518 23.5133 8.52488 23.7874 8.63841C24.0615 8.75194 24.2958 8.9442 24.4606 9.19088C24.6254 9.43755 24.7134 9.72756 24.7134 10.0242C24.7134 10.4221 24.5553 10.8036 24.274 11.0849C23.9927 11.3662 23.6112 11.5242 23.2134 11.5242Z" fill="black"/>
</svg>
