<svg width="33" height="33" viewBox="0 0 33 33" fill="none" xmlns="http://www.w3.org/2000/svg">
<path d="M26.9012 4.18825H5.90125C5.37081 4.18825 4.8621 4.39896 4.48703 4.77403C4.11196 5.14911 3.90125 5.65781 3.90125 6.18825V27.1882C3.90125 27.7187 4.11196 28.2274 4.48703 28.6025C4.8621 28.9775 5.37081 29.1882 5.90125 29.1882H26.9012C27.4317 29.1882 27.9404 28.9775 28.3155 28.6025C28.6905 28.2274 28.9012 27.7187 28.9012 27.1882V6.18825C28.9012 5.65781 28.6905 5.14911 28.3155 4.77403C27.9404 4.39896 27.4317 4.18825 26.9012 4.18825ZM12.4012 22.6882C12.4012 22.9535 12.2959 23.2078 12.1084 23.3954C11.9208 23.5829 11.6665 23.6882 11.4012 23.6882C11.136 23.6882 10.8817 23.5829 10.6941 23.3954C10.5066 23.2078 10.4012 22.9535 10.4012 22.6882V14.6882C10.4012 14.423 10.5066 14.1687 10.6941 13.9811C10.8817 13.7936 11.136 13.6882 11.4012 13.6882C11.6665 13.6882 11.9208 13.7936 12.1084 13.9811C12.2959 14.1687 12.4012 14.423 12.4012 14.6882V22.6882ZM11.4012 12.1882C11.1046 12.1882 10.8146 12.1003 10.5679 11.9355C10.3212 11.7706 10.129 11.5364 10.0154 11.2623C9.90189 10.9882 9.87219 10.6866 9.93007 10.3956C9.98794 10.1046 10.1308 9.83737 10.3406 9.62759C10.5504 9.41781 10.8176 9.27495 11.1086 9.21707C11.3996 9.15919 11.7012 9.1889 11.9753 9.30243C12.2494 9.41596 12.4836 9.60822 12.6484 9.85489C12.8133 10.1016 12.9012 10.3916 12.9012 10.6882C12.9012 11.0861 12.7432 11.4676 12.4619 11.7489C12.1806 12.0302 11.7991 12.1882 11.4012 12.1882V12.1882ZM23.4012 22.6882C23.4012 22.9535 23.2959 23.2078 23.1084 23.3954C22.9208 23.5829 22.6665 23.6882 22.4012 23.6882C22.136 23.6882 21.8817 23.5829 21.6941 23.3954C21.5066 23.2078 21.4012 22.9535 21.4012 22.6882V18.1882C21.4012 17.5252 21.1379 16.8893 20.669 16.4205C20.2002 15.9516 19.5643 15.6882 18.9012 15.6882C18.2382 15.6882 17.6023 15.9516 17.1335 16.4205C16.6646 16.8893 16.4012 17.5252 16.4012 18.1882V22.6882C16.4012 22.9535 16.2959 23.2078 16.1084 23.3954C15.9208 23.5829 15.6665 23.6882 15.4012 23.6882C15.136 23.6882 14.8817 23.5829 14.6941 23.3954C14.5066 23.2078 14.4012 22.9535 14.4012 22.6882V14.6882C14.4006 14.4421 14.4906 14.2044 14.6543 14.0206C14.8179 13.8368 15.0435 13.7197 15.288 13.6919C15.5326 13.664 15.7788 13.7273 15.9795 13.8696C16.1803 14.0119 16.3216 14.2233 16.3762 14.4632C17.0529 14.0046 17.8417 13.7389 18.658 13.6947C19.4742 13.6505 20.2871 13.8295 21.0093 14.2124C21.7316 14.5954 22.3358 15.1678 22.7572 15.8683C23.1786 16.5688 23.4013 17.3708 23.4012 18.1882V22.6882Z" fill="black"/>
</svg>
