<svg width="33" height="33" viewBox="0 0 33 33" fill="none" xmlns="http://www.w3.org/2000/svg">
<path d="M31.6529 10.6436L27.8779 14.4061C27.1279 23.1436 19.7529 29.9311 10.9404 29.9311C9.1279 29.9311 7.6279 29.6436 6.4904 29.0811C5.5779 28.6186 5.2029 28.1311 5.1029 27.9811C5.02016 27.8555 4.96684 27.7128 4.94693 27.5636C4.92701 27.4145 4.941 27.2628 4.98786 27.1198C5.03471 26.9768 5.11323 26.8463 5.21756 26.7379C5.32188 26.6294 5.44933 26.546 5.5904 26.4936C5.6154 26.4811 8.5654 25.3561 10.4779 23.1936C9.29182 22.3491 8.24934 21.3193 7.3904 20.1436C5.6779 17.8186 3.8654 13.7811 4.9529 7.75615C4.98708 7.57703 5.06901 7.41047 5.19002 7.27406C5.31103 7.13765 5.46663 7.03645 5.6404 6.98115C5.81471 6.92407 6.00137 6.91603 6.17995 6.95792C6.35853 6.99981 6.52214 7.09001 6.6529 7.21865C6.6904 7.26865 10.8529 11.3686 15.9404 12.6936V11.9311C15.9453 11.1383 16.1063 10.3542 16.4143 9.62353C16.7223 8.89291 17.1711 8.23009 17.7352 7.67294C18.2993 7.11579 18.9677 6.6752 19.7021 6.37634C20.4365 6.07749 21.2225 5.92621 22.0154 5.93115C23.056 5.94599 24.075 6.23013 24.9732 6.75587C25.8713 7.28162 26.618 8.03105 27.1404 8.93115H30.9404C31.1378 8.93053 31.331 8.98837 31.4956 9.09736C31.6602 9.20636 31.7889 9.36165 31.8654 9.54365C31.9374 9.72836 31.9557 9.92969 31.9181 10.1244C31.8805 10.319 31.7886 10.4991 31.6529 10.6436V10.6436Z" fill="black"/>
</svg>
