<svg width="33" height="33" viewBox="0 0 33 33" fill="none" xmlns="http://www.w3.org/2000/svg">
<path d="M29.2976 9.00633C29.1827 8.54549 28.9578 8.11937 28.6421 7.76451C28.3265 7.40965 27.9295 7.13662 27.4851 6.96883C23.2101 5.31883 16.3851 5.33133 16.0101 5.33133C15.6351 5.33133 8.81013 5.31883 4.53513 6.96883C4.09081 7.13662 3.69379 7.40965 3.37812 7.76451C3.06244 8.11937 2.83752 8.54549 2.72263 9.00633C2.39763 10.2438 2.01013 12.5188 2.01013 16.2813C2.01013 20.0438 2.39763 22.3188 2.72263 23.5563C2.83752 24.0172 3.06244 24.4433 3.37812 24.7982C3.69379 25.153 4.09081 25.426 4.53513 25.5938C8.63513 27.1813 15.0601 27.2313 15.9226 27.2313H16.0976C16.9601 27.2313 23.3851 27.1813 27.4851 25.5938C27.9295 25.426 28.3265 25.153 28.6421 24.7982C28.9578 24.4433 29.1827 24.0172 29.2976 23.5563C29.6226 22.3188 30.0101 20.0438 30.0101 16.2813C30.0101 12.5188 29.6226 10.2438 29.2976 9.00633ZM20.2851 16.6938L14.2851 20.6938C14.2056 20.7524 14.1089 20.7831 14.0101 20.7813C13.9273 20.7782 13.8462 20.7569 13.7726 20.7188C13.6927 20.6773 13.6259 20.6144 13.5796 20.5372C13.5332 20.4599 13.5092 20.3714 13.5101 20.2813V12.2813C13.5092 12.1913 13.5332 12.1027 13.5796 12.0255C13.6259 11.9483 13.6927 11.8854 13.7726 11.8438C13.8523 11.8013 13.9421 11.7812 14.0323 11.7856C14.1226 11.79 14.2099 11.8188 14.2851 11.8688L20.2851 15.8688C20.3549 15.9127 20.4123 15.9736 20.4521 16.0457C20.4919 16.1179 20.5128 16.1989 20.5128 16.2813C20.5128 16.3637 20.4919 16.4448 20.4521 16.5169C20.4123 16.5891 20.3549 16.6499 20.2851 16.6938Z" fill="black"/>
</svg>
