<svg width="250" height="250" viewBox="0 0 250 250" fill="none" xmlns="http://www.w3.org/2000/svg">
<path d="M116.388 229.385C116.663 229.409 116.909 229.469 117.125 229.566C117.341 229.668 117.518 229.801 117.656 229.964C117.941 230.292 118.062 230.71 118.019 231.218C117.983 231.644 117.777 231.995 117.404 232.271C117.024 232.558 116.569 232.678 116.04 232.633C115.495 232.586 115.069 232.369 114.762 231.983C114.479 231.629 114.356 231.232 114.394 230.791C114.432 230.349 114.64 229.996 115.018 229.73C115.407 229.455 115.864 229.34 116.388 229.385Z" fill="black"/>
<path d="M104.557 234.852L101.391 234.117C99.9152 233.774 98.8562 233.418 98.2146 233.05C97.4848 232.623 96.9511 232.171 96.6134 231.691C96.2706 231.21 96.0246 230.739 95.8753 230.276C95.5703 229.334 95.5398 228.338 95.7838 227.287C96.1681 225.634 97.0729 224.432 98.4982 223.683C99.5112 223.143 100.609 222.92 101.79 223.012C102.447 223.063 103.346 223.222 104.487 223.487L107.059 224.084L104.557 234.852ZM103.031 223.814C102.951 223.79 102.879 223.771 102.813 223.755L102.638 223.715C101.263 223.395 99.9886 223.551 98.8154 224.182C97.5757 224.846 96.782 225.926 96.4342 227.423C96.2149 228.366 96.2432 229.268 96.5191 230.129C96.9177 231.382 97.7977 232.29 99.1588 232.852C99.6028 233.035 100.153 233.209 100.811 233.372L103.031 223.814Z" fill="black"/>
<path d="M84.813 227.729C85.3129 227.924 85.6602 228.188 85.8548 228.521C86.0493 228.854 86.0758 229.202 85.9341 229.566C85.815 229.872 85.5577 230.073 85.162 230.171C84.7413 230.275 84.3465 230.256 83.9776 230.112C83.6087 229.969 83.339 229.822 83.1683 229.671C82.9928 229.519 82.8574 229.357 82.762 229.186C82.5731 228.839 82.54 228.507 82.6628 228.192C82.7857 227.876 83.0498 227.672 83.4551 227.578C83.8605 227.484 84.3131 227.535 84.813 227.729ZM86.8379 227.051L83.7074 225.832L86.7345 218.057L89.865 219.275L86.8379 227.051Z" fill="black"/>
<path d="M79.8877 216.164C79.851 216.233 79.7949 216.282 79.7196 216.313C79.6372 216.346 79.5569 216.341 79.4788 216.3C79.4006 216.258 79.3485 216.201 79.3225 216.128C79.3225 216.128 79.2932 216.044 79.2346 215.878C78.9794 215.205 78.4221 214.639 77.5625 214.181C76.9834 213.872 76.5474 213.794 76.2545 213.944C76.1743 213.984 76.117 214.036 76.0827 214.101C76.046 214.17 76.0255 214.241 76.0212 214.316C76.0099 214.392 76.0224 214.496 76.0586 214.628C76.0923 214.764 76.152 214.934 76.2375 215.139L76.5834 215.952C77.1691 217.267 77.5183 218.268 77.631 218.954C77.7336 219.581 77.6612 220.126 77.4138 220.591C77.1027 221.174 76.573 221.521 75.8246 221.629C75.048 221.747 74.2184 221.57 73.3359 221.1C72.7153 220.769 72.2638 220.437 71.9812 220.104C71.6986 219.77 71.5155 219.504 71.4321 219.307C71.3463 219.113 71.3291 218.968 71.3805 218.872C71.4858 218.674 71.6166 218.617 71.7729 218.7C71.8464 218.739 71.9019 218.801 71.9393 218.886C71.9697 218.973 72.0437 219.128 72.1615 219.35C72.2768 219.577 72.4665 219.808 72.7307 220.043C72.9949 220.278 73.2579 220.465 73.52 220.605C73.782 220.745 73.9902 220.802 74.1446 220.778C74.2944 220.752 74.3913 220.697 74.4354 220.615C74.477 220.537 74.5014 220.452 74.5084 220.361C74.5129 220.275 74.4973 220.161 74.4614 220.018C74.3865 219.671 74.213 219.216 73.9411 218.652C73.6691 218.088 73.4514 217.588 73.2879 217.153C73.1245 216.717 73.0166 216.338 72.9644 216.015C72.8677 215.433 72.932 214.93 73.1573 214.507C73.3826 214.084 73.6543 213.763 73.9722 213.543C74.2877 213.327 74.6478 213.189 75.0525 213.127C75.9112 212.988 76.8507 213.191 77.8712 213.735C78.6894 214.171 79.2887 214.691 79.6691 215.295C79.9177 215.681 79.9906 215.971 79.8877 216.164Z" fill="black"/>
<path d="M65.8543 207.055C65.6827 206.875 65.4976 206.713 65.2987 206.57C65.0956 206.424 64.8904 206.299 64.683 206.195C64.4683 206.092 64.255 206.01 64.0433 205.948C63.5925 205.816 63.1873 205.769 62.8276 205.806C62.5738 205.829 62.411 205.814 62.3391 205.763C62.1783 205.647 62.1495 205.518 62.2528 205.374C62.3561 205.23 62.6103 205.153 63.0153 205.142C63.9162 205.173 64.7939 205.496 65.6486 206.109C66.7613 206.908 67.4204 207.888 67.6259 209.049C67.8247 210.192 67.546 211.29 66.7896 212.343C66.0728 213.342 65.1229 213.91 63.9401 214.048C62.7677 214.181 61.6441 213.862 60.5695 213.09C59.956 212.65 59.4569 212.099 59.0722 211.438C58.7743 210.942 58.6968 210.595 58.8395 210.396C58.9003 210.311 58.9727 210.264 59.0569 210.254C59.1338 210.245 59.2019 210.262 59.2611 210.304C59.35 210.368 59.4293 210.499 59.499 210.696C59.5857 211.156 59.8619 211.633 60.3275 212.128C60.4948 212.306 60.6948 212.478 60.9274 212.645C61.1601 212.812 61.3733 212.94 61.5668 213.027L65.8543 207.055Z" fill="black"/>
<path d="M55.2651 203.504C54.8298 203.952 54.354 204.281 53.8378 204.492C53.3142 204.702 52.778 204.806 52.2292 204.803C51.0503 204.791 49.9975 204.335 49.0707 203.435C48.1252 202.517 47.6492 201.467 47.6427 200.285C47.6297 199.162 48.0477 198.163 48.8966 197.289C49.7491 196.41 50.7534 195.959 51.9096 195.935C53.1026 195.909 54.1681 196.352 55.1061 197.263C56.0217 198.152 56.4992 199.178 56.5386 200.341C56.5748 201.538 56.1503 202.592 55.2651 203.504ZM54.855 197.836C54.8287 197.803 54.8006 197.772 54.7707 197.743L54.6923 197.667C53.9374 196.934 53.0772 196.553 52.1117 196.523C51.0764 196.498 50.1614 196.894 49.3669 197.713C48.5906 198.512 48.2172 199.409 48.2467 200.403C48.2723 201.386 48.685 202.266 49.4848 203.042L49.5689 203.124C49.595 203.149 49.623 203.173 49.6528 203.195L54.855 197.836Z" fill="black"/>
<path d="M40.9097 194.576L38.7613 191.763L40.9541 187.414L38.0323 187.965C37.4136 188.09 36.974 188.21 36.7135 188.324C36.4499 188.433 36.2727 188.48 36.1819 188.464C36.088 188.444 36.011 188.395 35.9509 188.316C35.8877 188.234 35.8656 188.149 35.8846 188.062C35.9036 187.976 35.9401 187.912 35.9939 187.871C36.0477 187.829 36.1062 187.795 36.1695 187.766C36.2296 187.733 36.3163 187.696 36.4295 187.656C36.6466 187.588 37.04 187.494 37.6098 187.373L45.2157 185.889L40.9097 194.576Z" fill="black"/>
<path d="M33.5297 171.7C33.4315 171.522 33.4645 171.388 33.6286 171.297C33.7517 171.229 33.9417 171.229 34.1985 171.295C35.3349 171.608 36.2492 172.391 36.9415 173.645C37.5634 174.771 37.7473 175.907 37.4934 177.052C37.2272 178.241 36.5538 179.133 35.4732 179.73C34.3698 180.339 33.2636 180.48 32.1546 180.152C30.9773 179.808 30.04 179.005 29.3426 177.742C28.7837 176.73 28.622 175.71 28.8574 174.681C29.1082 173.573 29.7716 172.722 30.8476 172.128C31.0027 172.042 31.1693 171.956 31.3476 171.87L33.8399 176.383L36.7739 174.763C36.6666 174.418 36.5059 174.052 36.2919 173.664C35.8388 172.843 35.1811 172.293 34.3188 172.014C34.1348 171.961 33.9947 171.928 33.8986 171.916C33.7131 171.881 33.5901 171.809 33.5297 171.7ZM29.4016 176.362C29.4786 176.706 29.6204 177.065 29.8268 177.439C30.0332 177.813 30.2219 178.096 30.3929 178.287L33.3406 176.659L32.2946 174.765L29.4016 176.362Z" fill="black"/>
<path d="M23.7861 165.866L22.5978 162.724L24.8924 161.856C23.9322 161.835 23.1845 161.706 22.6492 161.468C22.1073 161.228 21.7626 160.913 21.6152 160.523C21.5323 160.304 21.5254 160.109 21.5944 159.938C21.6567 159.764 21.7585 159.65 21.8998 159.597C22.041 159.543 22.1605 159.521 22.258 159.528C22.3556 159.536 22.4455 159.56 22.528 159.602C22.6995 159.687 22.8074 159.788 22.8516 159.905C22.9216 160.09 22.9537 160.234 22.9479 160.336C22.9368 160.513 22.9533 160.66 22.9975 160.777C23.0418 160.894 23.1929 161.007 23.4511 161.115C23.7044 161.225 24.028 161.301 24.4219 161.341C25.3835 161.44 26.3368 161.31 27.2819 160.953L30.4022 159.773L31.5904 162.915L23.7861 165.866Z" fill="black"/>
<path d="M23.6717 127.894C24.1383 128.544 24.3863 129.275 24.4156 130.087C24.4547 131.164 24.2153 132.038 23.6975 132.708C23.1651 133.405 22.4044 133.772 21.4155 133.807C20.5411 133.839 19.8106 133.529 19.2242 132.878C18.632 132.212 18.3156 131.319 18.2751 130.2C18.248 129.45 18.3656 128.743 18.6282 128.076L16.4811 128.154C16.363 128.633 16.3105 129.054 16.3237 129.418C16.3367 129.778 16.3633 130.081 16.4036 130.33C16.4439 130.579 16.4993 130.814 16.5698 131.036C16.7227 131.515 16.9181 131.875 17.1562 132.117C17.2968 132.257 17.3693 132.388 17.3736 132.507C17.3779 132.627 17.3526 132.719 17.2976 132.784C17.2374 132.849 17.1709 132.882 17.098 132.885C17.0252 132.887 16.9596 132.877 16.9014 132.853C16.838 132.829 16.7738 132.782 16.7087 132.711C16.5677 132.56 16.4229 132.305 16.2744 131.945C15.9608 131.201 15.7903 130.449 15.7628 129.689C15.6791 127.378 16.1774 125.882 17.2577 125.202C17.7367 124.903 18.3745 124.74 19.1708 124.711L24.066 124.534L24.187 127.875L23.6717 127.894ZM19.2371 128.054C18.9434 128.722 18.8083 129.381 18.8318 130.031C18.8356 130.135 18.847 130.234 18.866 130.327L23.8315 130.147C23.8358 130.121 23.8373 130.092 23.8362 130.061C23.8351 130.03 23.8339 129.999 23.8328 129.967C23.807 129.254 23.5295 128.571 23.0003 127.918L19.2371 128.054Z" fill="black"/>
<path d="M25.2448 110.97C25.1499 111.688 24.8955 112.361 24.4814 112.989L24.8222 113.034L24.4015 116.217L13.4421 114.769L13.8628 111.586L16.9454 111.993C16.6758 111.29 16.5884 110.58 16.6833 109.862C16.7782 109.144 16.9673 108.529 17.2506 108.014C17.534 107.5 17.8871 107.074 18.3101 106.736C19.2007 106.039 20.2579 105.772 21.4816 105.934C22.7157 106.097 23.6884 106.627 24.3998 107.525C25.144 108.453 25.4256 109.602 25.2448 110.97ZM17.2487 109.937C17.1477 110.701 17.2686 111.416 17.6115 112.081L23.8231 112.902C24.2946 112.276 24.586 111.542 24.6972 110.701L24.7238 110.499C24.732 110.437 24.7347 110.377 24.7319 110.319L17.374 109.347C17.3171 109.539 17.2753 109.736 17.2487 109.937Z" fill="black"/>
<path d="M23.0181 99.0453C22.42 98.8642 21.9091 98.5925 21.4855 98.2302C21.0585 97.8614 20.7203 97.4325 20.4712 96.9434C19.9412 95.8904 19.8634 94.7458 20.2378 93.5096C20.6197 92.2484 21.3345 91.3439 22.382 90.7959C23.3742 90.2692 24.4535 90.1825 25.6199 90.5357C26.7913 90.8905 27.653 91.576 28.2051 92.5921C28.7746 93.6407 28.8698 94.7906 28.4909 96.0418C28.121 97.2631 27.4282 98.158 26.4125 98.7265C25.3659 99.3074 24.2344 99.4137 23.0181 99.0453ZM27.8667 96.0813C27.8838 96.0429 27.8983 96.0038 27.9104 95.9639L27.9421 95.8593C28.2471 94.8523 28.1914 93.9131 27.7752 93.0415C27.3226 92.1099 26.5505 91.4788 25.4589 91.1482C24.3922 90.8251 23.4239 90.9046 22.5541 91.3867C21.6923 91.8604 21.0999 92.6306 20.7768 93.6973L20.7428 93.8095C20.7323 93.8444 20.7242 93.88 20.7186 93.9164L27.8667 96.0813Z" fill="black"/>
<path d="M33.7571 82.1652C32.9508 83.8059 31.746 84.2323 30.1427 83.4444L24.926 80.8809L26.4007 77.8799L33.2651 81.2532C33.3115 81.2179 33.3519 81.1652 33.3863 81.0951L33.5 80.8637C33.6838 80.4898 33.6496 79.9216 33.3974 79.1594C33.319 78.9293 33.2219 78.7017 33.1062 78.4766L27.4689 75.7063L28.9505 72.6913L36.4389 76.3712L34.9573 79.3862L33.8775 78.8556C34.3118 80.0149 34.2716 81.1181 33.7571 82.1652Z" fill="black"/>
<path d="M42.4427 67.1676C41.282 68.8473 39.9347 69.1572 38.4007 68.0972L34.1799 65.1903L33.7013 65.9517C33.5414 66.183 33.3736 66.238 33.198 66.1167C33.0223 65.9953 33.0203 65.8103 33.192 65.5618L33.6441 64.9625L33.7107 64.8661L32.7144 64.1777L33.3856 60.5677L35.6159 62.1087L36.211 61.2475L36.6072 60.6191C36.7819 60.3663 36.9592 60.302 37.1392 60.4264C37.2206 60.4827 37.2597 60.5635 37.2565 60.6689C37.252 60.7671 37.2187 60.8611 37.1565 60.9511L36.5736 61.7259L36.0851 62.4329L42.1269 66.6076C42.4647 66.1003 42.6099 65.5833 42.5623 65.0567C42.5518 64.8152 42.4746 64.5972 42.3304 64.4027C42.1893 64.2038 42.1107 64.061 42.0949 63.974C42.0776 63.8798 42.0942 63.7963 42.1445 63.7235C42.1949 63.6506 42.2678 63.6092 42.3633 63.5992C42.4545 63.5863 42.5409 63.608 42.6223 63.6642C42.6994 63.7175 42.7724 63.7996 42.8414 63.9106C42.9061 64.0186 42.9623 64.1524 43.0103 64.3121C43.117 64.6708 43.1537 65.0253 43.1204 65.3758C43.0564 66.009 42.8305 66.6063 42.4427 67.1676Z" fill="black"/>
<path d="M46.9222 44.5516C47.9705 43.6143 48.8034 42.8697 49.4207 42.3177C50.042 41.7623 50.4203 41.4275 50.5558 41.3133C51.1547 40.8267 51.6212 40.5319 51.9553 40.4288C52.2858 40.3219 52.58 40.2719 52.8378 40.279C53.4006 40.3068 53.8695 40.5303 54.2444 40.9496C54.6159 41.3651 54.7966 41.8602 54.7866 42.4351C54.7841 42.612 54.7558 42.7875 54.7019 42.9615C55.4389 42.5121 56.195 42.3146 56.9703 42.369C57.8117 42.4272 58.5223 42.7804 59.102 43.4288C59.6922 44.0889 59.9969 44.8399 60.0163 45.682C60.0357 46.8524 59.4772 48.0015 58.3407 49.1294C58.0518 49.4157 57.7597 49.6908 57.4647 49.9546L54.2906 52.7926L46.9222 44.5516ZM53.3048 44.0011L53.633 43.7704L53.7262 43.6871C54.033 43.4129 54.1982 43.0625 54.2221 42.6359C54.2476 42.18 54.1041 41.7773 53.7917 41.4278C53.4098 41.0007 52.932 40.8375 52.3584 40.9382C52.0678 40.9884 51.8207 41.0871 51.617 41.2343C51.4137 41.3742 51.2561 41.4871 51.1444 41.5731C50.913 41.7519 50.6207 41.9993 50.2674 42.3152L56.8755 49.7059L57.5219 49.1279C58.182 48.5377 58.6468 47.9754 58.9165 47.4409C59.2607 46.8257 59.4083 46.1976 59.3593 45.5568C59.3121 44.9492 59.1115 44.4474 58.7574 44.0514C58.4033 43.6553 58.0465 43.3735 57.687 43.2059C57.3275 43.0382 56.9521 42.9582 56.5607 42.9658C55.7596 42.9764 54.9573 43.341 54.1536 44.0596L53.783 44.4538C53.6587 44.5649 53.5449 44.6213 53.4415 44.6229C53.3382 44.6245 53.257 44.5922 53.198 44.5262C53.0556 44.3671 53.0912 44.192 53.3048 44.0011Z" fill="black"/>
<path d="M61.1701 32.9344L63.9587 31.0611L70.1231 40.2375L67.3345 42.1107L61.1701 32.9344Z" fill="black"/>
<path d="M74.0641 32.8478C73.7875 32.2874 73.6367 31.7287 73.6116 31.1719C73.5889 30.6081 73.671 30.0681 73.8577 29.552C74.2641 28.4454 75.0464 27.6063 76.2047 27.0346C77.3864 26.4515 78.5352 26.355 79.6512 26.7451C80.7138 27.1094 81.5147 27.838 82.0541 28.9309C82.5958 30.0285 82.6844 31.126 82.3199 32.2235C81.9437 33.3559 81.1694 34.2114 79.9971 34.7899C78.8528 35.3546 77.7261 35.4606 76.6168 35.1077C75.4774 34.7407 74.6265 33.9874 74.0641 32.8478ZM79.5416 34.3613C79.5813 34.3475 79.6198 34.3314 79.6572 34.313L79.7553 34.2646C80.6987 33.799 81.3463 33.1164 81.6981 32.2168C82.0688 31.2497 82.0018 30.2548 81.497 29.2319C81.0037 28.2324 80.2839 27.58 79.3375 27.2746C78.4027 26.9692 77.4356 27.0632 76.4361 27.5564L76.331 27.6083C76.2983 27.6244 76.2668 27.6429 76.2364 27.6637L79.5416 34.3613Z" fill="black"/>
<path d="M91.9436 26.9005C91.5438 27.1741 91.369 27.3903 91.4192 27.5493C91.4678 27.7032 91.6306 27.7693 91.9077 27.7474C92.447 27.7083 93.1601 27.5625 94.0471 27.31C94.9325 27.0525 95.6143 26.9111 96.0924 26.8859C96.5739 26.8541 96.9729 26.8811 97.2894 26.9669C97.865 27.1294 98.2343 27.4689 98.3972 27.9855C98.601 28.6312 98.4459 29.2563 97.9321 29.8608C97.3613 30.5269 96.4302 31.0638 95.1388 31.4712C93.8027 31.8928 92.6373 32.042 91.6427 31.9189C91.2812 31.8636 91.0699 31.7391 91.0088 31.5454C90.9822 31.461 90.9908 31.3845 91.0347 31.3161C91.0836 31.246 91.1429 31.2 91.2124 31.1781C91.2968 31.1514 91.4039 31.1532 91.5335 31.1833C91.8323 31.2474 92.1034 31.2929 92.3467 31.3199C92.5966 31.3503 92.9666 31.3373 93.4567 31.281C93.9469 31.2247 94.4055 31.1291 94.8327 30.9943C95.2648 30.858 95.6087 30.7276 95.8644 30.6033C96.1266 30.4823 96.3393 30.3688 96.5024 30.2627C96.8222 30.0471 96.9617 29.8748 96.9209 29.7456C96.8833 29.6264 96.8211 29.5505 96.7344 29.5178C96.6476 29.4851 96.54 29.4644 96.4117 29.4558C96.2899 29.4505 96.1241 29.4618 95.9145 29.4897C95.4853 29.5487 94.915 29.6713 94.2037 29.8575C93.4924 30.0437 92.9166 30.1489 92.4764 30.1731C92.0378 30.2022 91.6642 30.1781 91.3558 30.1006C90.7585 29.9559 90.3784 29.6253 90.2154 29.1087C89.9804 28.3637 90.2941 27.6011 91.1567 26.8211C90.6148 26.7135 90.1423 26.4967 89.739 26.1706C89.3342 25.8396 89.0558 25.4332 88.9038 24.9514C88.7502 24.4646 88.7072 24.0167 88.7747 23.6076C88.8457 23.192 89.0043 22.8034 89.2506 22.4416C89.7655 21.6675 90.5693 21.1081 91.6621 20.7633C92.1488 20.6097 92.6616 20.5299 93.2003 20.5237C93.6909 19.6207 94.2367 19.0744 94.8378 18.8848C95.0911 18.8049 95.2906 18.7883 95.4365 18.8351C95.5873 18.8804 95.6831 18.9676 95.7238 19.0967C95.7646 19.2259 95.7521 19.3336 95.6865 19.4198C95.6193 19.5011 95.5485 19.5535 95.4739 19.577C95.3398 19.6193 95.2209 19.6404 95.1171 19.6404C94.9624 19.6346 94.813 19.6545 94.6689 19.6999C94.4007 19.7845 94.1217 20.0774 93.832 20.5784C94.767 20.7203 95.4762 21.1246 95.9596 21.7913C96.1174 22.0146 96.2535 22.3075 96.3679 22.6701C96.4808 23.0277 96.4893 23.4182 96.3935 23.8417C96.2977 24.2651 96.1167 24.6608 95.8505 25.0288C95.2946 25.7941 94.5274 26.331 93.5489 26.6398C93.0355 26.8127 92.5004 26.8996 91.9436 26.9005ZM93.4071 26.0865C94.2086 25.8227 94.8396 25.4079 95.3001 24.842C95.8327 24.1934 95.9815 23.4965 95.7464 22.7515C95.5114 22.0064 94.9914 21.5097 94.1867 21.2611C93.449 21.0351 92.683 21.0392 91.8886 21.2735L93.4071 26.0865Z" fill="black"/>
<path d="M111.867 24.1824C112.144 24.1368 112.3 24.2168 112.333 24.4224C112.349 24.5149 112.303 24.6069 112.197 24.6982C112.09 24.7896 111.896 24.8584 111.613 24.9048L104.436 26.0828L107.741 17.6629L105.42 18.0438C105.081 18.0995 104.824 18.1575 104.649 18.2178C104.414 18.2986 104.245 18.3474 104.143 18.3643C104.04 18.3811 103.948 18.3672 103.867 18.3225C103.79 18.2718 103.744 18.2027 103.73 18.1154C103.69 17.8738 103.925 17.7113 104.433 17.6278L111.11 16.5321L108.098 24.9038L110.634 24.4876C111.009 24.426 111.274 24.3667 111.428 24.3097C111.613 24.2425 111.759 24.2001 111.867 24.1824Z" fill="black"/>
<path d="M125.835 23.3497C126.116 23.3428 126.259 23.4434 126.264 23.6517C126.267 23.7454 126.209 23.8302 126.091 23.906C125.973 23.9819 125.771 24.0233 125.484 24.0304L118.213 24.2097L122.645 16.3246L120.294 16.3826C119.951 16.391 119.688 16.4131 119.507 16.4489C119.263 16.4965 119.089 16.5217 118.985 16.5242C118.881 16.5268 118.792 16.5004 118.717 16.4449C118.648 16.3841 118.612 16.3094 118.61 16.2209C118.604 15.9762 118.859 15.8475 119.374 15.8347L126.138 15.668L122.003 23.5458L124.572 23.4824C124.952 23.473 125.223 23.4507 125.383 23.4155C125.575 23.3743 125.726 23.3524 125.835 23.3497Z" fill="black"/>
<path d="M134.743 20.3527C134.468 20.3255 134.223 20.262 134.008 20.1622C133.793 20.0572 133.618 19.9222 133.483 19.757C133.201 19.4256 133.086 19.006 133.136 18.498C133.178 18.073 133.388 17.7248 133.765 17.4533C134.149 17.172 134.605 17.0575 135.134 17.1098C135.678 17.1636 136.101 17.386 136.403 17.777C136.681 18.1343 136.799 18.5332 136.755 18.9738C136.712 19.4143 136.499 19.7649 136.117 20.0255C135.724 20.2954 135.266 20.4044 134.743 20.3527Z" fill="black"/>
<path d="M146.645 15.0424L149.801 15.8198C151.272 16.1824 152.326 16.552 152.963 16.9288C153.687 17.3647 154.215 17.8245 154.546 18.3085C154.883 18.7937 155.122 19.2684 155.265 19.7328C155.558 20.6792 155.575 21.6758 155.317 22.7227C154.911 24.3713 153.991 25.5606 152.556 26.2906C151.535 26.8171 150.435 27.0262 149.255 26.9178C148.599 26.8581 147.702 26.6882 146.565 26.4079L144.001 25.7762L146.645 15.0424ZM148.024 26.0997C148.104 26.1247 148.177 26.1453 148.243 26.1614L148.417 26.2044C149.787 26.542 151.063 26.4031 152.245 25.7877C153.493 25.1404 154.301 24.0708 154.669 22.579C154.901 21.6384 154.884 20.7358 154.62 19.8715C154.238 18.6133 153.37 17.6942 152.016 17.114C151.575 16.9247 151.026 16.7441 150.372 16.572L148.024 26.0997Z" fill="black"/>
<path d="M166.293 22.4258C165.796 22.2246 165.452 21.9563 165.262 21.6209C165.072 21.2855 165.05 20.9367 165.196 20.5746C165.319 20.2704 165.579 20.0722 165.976 19.98C166.398 19.8811 166.793 19.9059 167.16 20.0544C167.527 20.2028 167.795 20.3533 167.963 20.5059C168.137 20.6603 168.27 20.8238 168.363 20.9963C168.547 21.3462 168.576 21.6781 168.449 21.9919C168.322 22.3057 168.055 22.5068 167.649 22.5951C167.242 22.6835 166.79 22.627 166.293 22.4258ZM164.259 23.0778L167.373 24.3378L164.244 32.0724L161.13 30.8123L164.259 23.0778Z" fill="black"/>
<path d="M171.065 34.0558C171.102 33.9873 171.159 33.9383 171.235 33.9086C171.318 33.8769 171.398 33.8823 171.476 33.925C171.553 33.9677 171.604 34.0256 171.63 34.0989C171.63 34.0989 171.658 34.1827 171.714 34.3504C171.96 35.0268 172.51 35.5996 173.364 36.0689C173.939 36.3851 174.374 36.4698 174.668 36.3228C174.749 36.284 174.807 36.2327 174.842 36.1688C174.88 36.1003 174.901 36.0289 174.907 35.9545C174.919 35.8781 174.908 35.7739 174.873 35.642C174.841 35.5056 174.784 35.3343 174.701 35.1283L174.366 34.311C173.798 32.988 173.462 31.983 173.358 31.2959C173.264 30.6675 173.344 30.1229 173.597 29.6619C173.916 29.0823 174.45 28.7431 175.2 28.6443C175.978 28.5372 176.805 28.7246 177.681 29.2065C178.298 29.5453 178.745 29.8834 179.023 30.2206C179.301 30.5578 179.48 30.8259 179.561 31.0249C179.645 31.2193 179.66 31.3644 179.607 31.4603C179.499 31.6565 179.368 31.712 179.213 31.6266C179.14 31.5865 179.085 31.5237 179.049 31.4384C179.019 31.351 178.947 31.1955 178.833 30.9719C178.72 30.7437 178.534 30.5103 178.273 30.2716C178.012 30.033 177.751 29.8421 177.491 29.699C177.231 29.556 177.023 29.4954 176.869 29.5173C176.718 29.5418 176.621 29.595 176.576 29.6772C176.533 29.7548 176.507 29.8389 176.499 29.9294C176.494 30.0155 176.508 30.1302 176.542 30.2738C176.612 30.6215 176.779 31.0791 177.044 31.6466C177.308 32.2141 177.519 32.7165 177.677 33.1539C177.835 33.5913 177.938 33.9718 177.986 34.2954C178.075 34.8793 178.004 35.3812 177.773 35.8011C177.542 36.2209 177.266 36.5388 176.945 36.7547C176.627 36.966 176.265 37.0998 175.86 37.1562C174.999 37.2833 174.062 37.0683 173.049 36.5111C172.237 36.0644 171.644 35.5365 171.272 34.9275C171.028 34.538 170.959 34.2474 171.065 34.0558Z" fill="black"/>
<path d="M184.977 43.3488C185.146 43.5319 185.329 43.6961 185.526 43.8415C185.727 43.99 185.93 44.1176 186.137 44.2244C186.35 44.3301 186.562 44.4154 186.773 44.4805C187.222 44.6177 187.626 44.6704 187.987 44.6385C188.241 44.6188 188.403 44.6353 188.474 44.6879C188.634 44.8054 188.661 44.9354 188.556 45.0779C188.45 45.2204 188.195 45.2942 187.79 45.2993C186.89 45.2562 186.016 44.9222 185.17 44.2974C184.068 43.4839 183.422 42.4955 183.232 41.3323C183.048 40.1868 183.341 39.0924 184.111 38.049C184.841 37.0601 185.799 36.5043 186.983 36.3818C188.157 36.2645 189.276 36.5987 190.341 37.3844C190.948 37.8329 191.44 38.3901 191.816 39.056C192.107 39.5559 192.18 39.9043 192.035 40.1013C191.973 40.1851 191.9 40.2315 191.816 40.2404C191.739 40.2483 191.671 40.2306 191.612 40.1873C191.524 40.1223 191.447 39.9906 191.379 39.7922C191.299 39.3313 191.029 38.8506 190.57 38.3499C190.405 38.1699 190.207 37.9948 189.977 37.8247C189.747 37.6545 189.535 37.5244 189.343 37.4342L184.977 43.3488Z" fill="black"/>
<path d="M195.518 47.0403C195.959 46.5977 196.439 46.2746 196.958 46.0712C197.484 45.8678 198.022 45.7712 198.571 45.7814C199.749 45.8089 200.796 46.2786 201.711 47.1905C202.644 48.1207 203.106 49.177 203.097 50.3592C203.095 51.4824 202.664 52.4757 201.804 53.3389C200.94 54.2057 199.929 54.6438 198.773 54.653C197.58 54.6623 196.52 54.2055 195.594 53.2826C194.691 52.3818 194.227 51.3495 194.203 50.1858C194.182 48.9889 194.621 47.9404 195.518 47.0403ZM195.853 52.7132C195.879 52.7463 195.907 52.7776 195.936 52.807L196.014 52.8842C196.759 53.6269 197.614 54.0196 198.579 54.0622C199.614 54.1011 200.534 53.7166 201.339 52.9087C202.126 52.1193 202.511 51.2274 202.495 50.2331C202.482 49.2498 202.081 48.3647 201.292 47.5779L201.209 47.4951C201.183 47.4694 201.155 47.4455 201.126 47.4235L195.853 52.7132Z" fill="black"/>
<path d="M209.754 56.1573L211.865 58.9978L209.615 63.3177L212.544 62.8054C213.164 62.6884 213.605 62.5747 213.867 62.4643C214.132 62.3582 214.31 62.3137 214.4 62.3307C214.494 62.352 214.57 62.4023 214.629 62.4817C214.692 62.5653 214.713 62.6503 214.692 62.7367C214.672 62.8231 214.635 62.8864 214.581 62.9268C214.526 62.9672 214.467 63.0013 214.404 63.0292C214.343 63.0612 214.256 63.0968 214.142 63.1359C213.924 63.2005 213.53 63.2894 212.958 63.4026L205.333 64.7865L209.754 56.1573Z" fill="black"/>
<path d="M216.831 79.1286C216.927 79.3077 216.892 79.4415 216.727 79.5299C216.603 79.5962 216.413 79.5945 216.157 79.5247C215.025 79.1971 214.121 78.4019 213.445 77.139C212.838 76.0046 212.669 74.8664 212.938 73.7242C213.22 72.5397 213.905 71.6563 214.994 71.074C216.105 70.4794 217.213 70.3533 218.318 70.6956C219.49 71.0547 220.417 71.8702 221.097 73.1423C221.643 74.1618 221.791 75.1842 221.542 76.2093C221.277 77.3141 220.602 78.1565 219.518 78.7363C219.362 78.8198 219.194 78.9037 219.015 78.9879L216.583 74.4414L213.627 76.0224C213.73 76.3691 213.886 76.7376 214.095 77.128C214.537 77.9546 215.187 78.5134 216.046 78.8042C216.229 78.8598 216.369 78.8943 216.465 78.908C216.65 78.9448 216.772 79.0184 216.831 79.1286ZM221.02 74.5216C220.948 74.1764 220.811 73.8155 220.609 73.4389C220.408 73.0623 220.223 72.7774 220.054 72.5839L217.085 74.1724L218.106 76.0805L221.02 74.5216Z" fill="black"/>
<path d="M226.496 85.0907L227.643 88.2484L225.337 89.0857C226.297 89.1195 227.043 89.2587 227.575 89.5032C228.114 89.7509 228.454 90.0705 228.596 90.4622C228.676 90.6825 228.681 90.8776 228.609 91.0475C228.545 91.2206 228.442 91.3329 228.3 91.3845C228.158 91.436 228.038 91.4573 227.94 91.4484C227.843 91.4394 227.753 91.4138 227.672 91.3715C227.501 91.2837 227.395 91.1811 227.352 91.0636C227.284 90.8776 227.254 90.7334 227.261 90.6311C227.275 90.4544 227.26 90.3074 227.218 90.1899C227.175 90.0724 227.025 89.9577 226.768 89.8459C226.517 89.7323 226.194 89.6527 225.801 89.6072C224.841 89.4959 223.886 89.6127 222.936 89.9576L219.8 91.0962L218.654 87.9385L226.496 85.0907Z" fill="black"/>
<path d="M225.555 114.098C225.041 113.484 224.739 112.774 224.648 111.967C224.528 110.895 224.701 110.006 225.166 109.299C225.645 108.564 226.376 108.141 227.359 108.031C228.229 107.933 228.98 108.187 229.614 108.792C230.255 109.412 230.638 110.278 230.763 111.391C230.846 112.136 230.782 112.851 230.571 113.535L232.706 113.296C232.788 112.809 232.808 112.385 232.768 112.023C232.727 111.666 232.678 111.365 232.619 111.12C232.56 110.875 232.487 110.645 232.4 110.429C232.212 109.963 231.989 109.618 231.734 109.395C231.583 109.265 231.501 109.141 231.488 109.022C231.474 108.903 231.493 108.809 231.542 108.741C231.598 108.672 231.661 108.633 231.734 108.625C231.806 108.617 231.872 108.622 231.932 108.642C231.997 108.661 232.065 108.703 232.135 108.768C232.287 108.909 232.451 109.152 232.626 109.5C232.995 110.218 233.222 110.955 233.306 111.711C233.564 114.009 233.18 115.538 232.154 116.298C231.699 116.632 231.075 116.843 230.284 116.932L225.416 117.478L225.043 114.155L225.555 114.098ZM229.965 113.603C230.208 112.915 230.293 112.248 230.22 111.601C230.209 111.498 230.19 111.4 230.164 111.309L225.226 111.863C225.224 111.889 225.224 111.918 225.228 111.949C225.231 111.98 225.235 112.011 225.238 112.042C225.318 112.751 225.646 113.411 226.223 114.023L229.965 113.603Z" fill="black"/>
<path d="M225.264 131.092C225.304 130.369 225.507 129.679 225.872 129.021L225.529 129.002L225.709 125.796L236.746 126.413L236.567 129.619L233.462 129.446C233.784 130.126 233.925 130.828 233.884 131.551C233.844 132.273 233.702 132.902 233.458 133.436C233.214 133.97 232.894 134.422 232.498 134.791C231.662 135.553 230.628 135.899 229.396 135.83C228.153 135.76 227.143 135.305 226.366 134.463C225.554 133.594 225.186 132.47 225.264 131.092ZM233.315 131.519C233.358 130.749 233.183 130.046 232.791 129.408L226.535 129.058C226.113 129.718 225.877 130.471 225.83 131.319L225.819 131.522C225.815 131.584 225.817 131.644 225.824 131.702L233.234 132.117C233.277 131.921 233.303 131.722 233.315 131.519Z" fill="black"/>
<path d="M228.383 142.814C228.993 142.95 229.523 143.182 229.973 143.512C230.427 143.847 230.796 144.249 231.082 144.718C231.69 145.728 231.853 146.864 231.573 148.125C231.288 149.411 230.643 150.367 229.64 150.992C228.69 151.592 227.621 151.76 226.431 151.496C225.236 151.231 224.325 150.612 223.698 149.641C223.051 148.638 222.869 147.498 223.153 146.222C223.429 144.977 224.053 144.032 225.023 143.388C226.023 142.73 227.143 142.539 228.383 142.814ZM223.772 146.136C223.758 146.175 223.746 146.215 223.737 146.256L223.714 146.363C223.486 147.39 223.612 148.322 224.093 149.16C224.614 150.055 225.432 150.626 226.545 150.873C227.633 151.115 228.593 150.963 229.424 150.416C230.247 149.879 230.78 149.066 231.022 147.978L231.047 147.864C231.055 147.828 231.06 147.792 231.063 147.755L223.772 146.136Z" fill="black"/>
<path d="M218.948 160.457C219.628 158.76 220.798 158.244 222.456 158.908L227.851 161.071L226.607 164.175L219.508 161.329C219.464 161.368 219.428 161.423 219.399 161.496L219.303 161.735C219.148 162.122 219.225 162.686 219.534 163.427C219.629 163.65 219.743 163.87 219.875 164.086L225.706 166.423L224.456 169.541L216.711 166.436L217.961 163.318L219.078 163.766C218.557 162.643 218.514 161.54 218.948 160.457Z" fill="black"/>
<path d="M211.419 176.067C212.449 174.304 213.769 173.894 215.379 174.835L219.807 177.415L220.227 176.62C220.369 176.377 220.532 176.309 220.716 176.417C220.901 176.525 220.917 176.709 220.764 176.97L220.359 177.602L220.299 177.703L221.345 178.314L220.948 181.965L218.608 180.596L218.079 181.5L217.732 182.156C217.576 182.422 217.404 182.499 217.216 182.389C217.13 182.339 217.085 182.261 217.08 182.156C217.077 182.057 217.104 181.961 217.159 181.867L217.682 181.05L218.115 180.308L211.776 176.601C211.477 177.133 211.372 177.659 211.459 178.181C211.487 178.421 211.581 178.632 211.739 178.815C211.895 179.003 211.984 179.139 212.006 179.225C212.031 179.318 212.021 179.402 211.976 179.478C211.931 179.555 211.862 179.602 211.767 179.619C211.677 179.639 211.589 179.624 211.504 179.574C211.423 179.526 211.344 179.45 211.267 179.344C211.194 179.242 211.128 179.112 211.068 178.957C210.935 178.607 210.871 178.256 210.878 177.904C210.894 177.268 211.074 176.656 211.419 176.067Z" fill="black"/>
<path d="M208.658 198.956C207.683 199.97 206.909 200.775 206.335 201.372C205.757 201.973 205.405 202.335 205.279 202.459C204.718 202.99 204.275 203.319 203.95 203.447C203.629 203.578 203.339 203.65 203.081 203.663C202.518 203.678 202.034 203.49 201.628 203.1C201.226 202.714 201.009 202.234 200.975 201.66C200.965 201.483 200.98 201.306 201.02 201.128C200.319 201.632 199.58 201.886 198.803 201.89C197.96 201.896 197.224 201.597 196.597 200.994C195.959 200.381 195.599 199.655 195.516 198.817C195.408 197.651 195.878 196.463 196.927 195.253C197.193 194.945 197.464 194.649 197.738 194.364L200.689 191.294L208.658 198.956ZM202.335 199.987L202.025 200.241L201.938 200.331C201.653 200.628 201.515 200.99 201.523 201.417C201.532 201.874 201.706 202.264 202.044 202.589C202.457 202.986 202.945 203.113 203.51 202.969C203.796 202.897 204.035 202.78 204.227 202.618C204.419 202.463 204.567 202.339 204.672 202.245C204.89 202.049 205.162 201.78 205.491 201.438L198.344 194.567L197.743 195.192C197.129 195.831 196.708 196.426 196.48 196.98C196.183 197.619 196.083 198.257 196.18 198.892C196.273 199.494 196.511 199.979 196.894 200.348C197.277 200.716 197.654 200.97 198.025 201.11C198.396 201.25 198.777 201.302 199.166 201.264C199.964 201.193 200.737 200.769 201.484 199.992L201.824 199.571C201.94 199.451 202.049 199.386 202.152 199.377C202.255 199.367 202.338 199.393 202.402 199.455C202.556 199.603 202.534 199.78 202.335 199.987Z" fill="black"/>
<path d="M195.327 211.615L192.688 213.693L185.849 205.008L188.488 202.93L195.327 211.615Z" fill="black"/>
<path d="M182.476 212.674C182.794 213.212 182.987 213.758 183.054 214.311C183.119 214.871 183.078 215.416 182.931 215.945C182.609 217.079 181.892 217.975 180.78 218.632C179.646 219.303 178.508 219.485 177.365 219.181C176.278 218.898 175.425 218.231 174.804 217.182C174.182 216.129 174.01 215.041 174.291 213.919C174.581 212.762 175.288 211.85 176.414 211.185C177.512 210.535 178.628 210.345 179.76 210.613C180.924 210.893 181.829 211.58 182.476 212.674ZM176.9 211.578C176.862 211.595 176.824 211.614 176.789 211.635L176.694 211.69C175.789 212.226 175.194 212.955 174.912 213.879C174.615 214.871 174.757 215.858 175.337 216.84C175.904 217.8 176.671 218.396 177.638 218.629C178.593 218.863 179.551 218.696 180.51 218.129L180.611 218.069C180.642 218.051 180.672 218.03 180.701 218.007L176.9 211.578Z" fill="black"/>
<path d="M165.096 219.953C165.474 219.65 165.632 219.421 165.57 219.266C165.51 219.117 165.343 219.063 165.068 219.106C164.533 219.185 163.833 219.385 162.968 219.703C162.104 220.027 161.435 220.219 160.96 220.281C160.483 220.349 160.083 220.352 159.761 220.29C159.174 220.171 158.781 219.861 158.579 219.358C158.327 218.729 158.435 218.094 158.901 217.453C159.42 216.746 160.308 216.14 161.565 215.636C162.866 215.115 164.017 214.878 165.018 214.926C165.382 214.954 165.602 215.062 165.678 215.251C165.711 215.333 165.708 215.41 165.669 215.481C165.626 215.555 165.57 215.605 165.503 215.632C165.42 215.665 165.314 215.672 165.182 215.651C164.879 215.61 164.606 215.585 164.361 215.577C164.109 215.565 163.741 215.606 163.257 215.699C162.772 215.792 162.322 215.922 161.907 216.089C161.486 216.257 161.153 216.413 160.907 216.556C160.655 216.697 160.451 216.826 160.297 216.944C159.994 217.183 159.868 217.366 159.918 217.491C159.965 217.607 160.033 217.678 160.122 217.705C160.211 217.731 160.319 217.743 160.448 217.742C160.57 217.738 160.734 217.714 160.941 217.671C161.365 217.579 161.924 217.414 162.62 217.175C163.315 216.936 163.881 216.787 164.318 216.73C164.753 216.668 165.128 216.664 165.441 216.718C166.047 216.817 166.451 217.118 166.653 217.621C166.943 218.346 166.688 219.13 165.887 219.973C166.435 220.039 166.923 220.22 167.35 220.514C167.778 220.814 168.086 221.198 168.274 221.667C168.464 222.141 168.541 222.584 168.504 222.997C168.465 223.417 168.336 223.817 168.118 224.196C167.663 225.007 166.903 225.625 165.84 226.051C165.366 226.241 164.861 226.36 164.324 226.406C163.903 227.344 163.4 227.93 162.815 228.164C162.568 228.263 162.371 228.295 162.222 228.259C162.068 228.225 161.966 228.145 161.915 228.02C161.865 227.894 161.869 227.786 161.928 227.695C161.989 227.609 162.056 227.551 162.128 227.522C162.259 227.47 162.376 227.44 162.479 227.432C162.634 227.426 162.782 227.395 162.922 227.339C163.183 227.234 163.439 226.921 163.69 226.4C162.747 226.329 162.009 225.979 161.477 225.351C161.303 225.14 161.145 224.858 161.004 224.505C160.864 224.157 160.826 223.768 160.89 223.339C160.953 222.909 161.104 222.501 161.342 222.114C161.838 221.309 162.563 220.716 163.515 220.334C164.014 220.123 164.541 219.996 165.096 219.953ZM163.698 220.875C162.919 221.199 162.321 221.66 161.905 222.259C161.422 222.946 161.327 223.652 161.617 224.377C161.908 225.102 162.464 225.558 163.285 225.745C164.037 225.915 164.801 225.853 165.576 225.56L163.698 220.875Z" fill="black"/>
<path d="M145.435 224.166C145.162 224.233 145 224.164 144.951 223.962C144.929 223.871 144.968 223.776 145.067 223.677C145.166 223.578 145.355 223.494 145.633 223.427L152.701 221.711L150.041 230.356L152.326 229.801C152.66 229.72 152.912 229.643 153.082 229.569C153.31 229.471 153.475 229.41 153.576 229.385C153.677 229.36 153.77 229.367 153.854 229.406C153.935 229.451 153.985 229.516 154.006 229.602C154.064 229.84 153.842 230.02 153.341 230.141L146.767 231.738L149.139 223.162L146.641 223.769C146.271 223.859 146.012 223.938 145.862 224.006C145.684 224.087 145.541 224.14 145.435 224.166Z" fill="black"/>
<path d="M131.569 226.05C131.289 226.078 131.139 225.989 131.118 225.781C131.109 225.688 131.16 225.599 131.272 225.515C131.384 225.43 131.582 225.374 131.867 225.345L139.104 224.618L135.28 232.815L137.62 232.579C137.962 232.545 138.222 232.503 138.4 232.454C138.639 232.388 138.811 232.35 138.915 232.339C139.018 232.329 139.109 232.349 139.187 232.398C139.261 232.454 139.302 232.526 139.311 232.614C139.336 232.857 139.091 233.005 138.578 233.056L131.847 233.733L135.376 225.566L132.818 225.823C132.44 225.861 132.172 225.903 132.015 225.95C131.827 226.006 131.678 226.039 131.569 226.05Z" fill="black"/>
<circle cx="125" cy="125" r="124" stroke="black" stroke-width="2"/>
<circle cx="125" cy="125" r="75" fill="black"/>
</svg>
