<svg xmlns="http://www.w3.org/2000/svg" width="250" height="250" fill="none" xmlns:v="https://vecta.io/nano"><path d="M116.388 229.385c.275.024.521.084.737.181a1.49 1.49 0 0 1 .531.398c.285.328.406.746.363 1.254-.036.426-.242.777-.615 1.053-.38.287-.835.407-1.364.362-.545-.047-.971-.264-1.278-.65-.283-.354-.406-.751-.368-1.192a1.39 1.39 0 0 1 .624-1.061c.389-.275.846-.39 1.37-.345zm-11.831 5.467l-3.166-.735c-1.476-.343-2.535-.699-3.176-1.067-.73-.427-1.264-.879-1.601-1.359-.343-.481-.589-.952-.738-1.415-.305-.942-.335-1.938-.091-2.989.384-1.653 1.289-2.855 2.714-3.604 1.013-.54 2.111-.763 3.292-.671.657.051 1.556.21 2.697.475l2.572.597-2.502 10.768zm-1.526-11.038l-.218-.059-.175-.04c-1.375-.32-2.649-.164-3.823.467-1.24.664-2.033 1.744-2.381 3.241-.219.943-.191 1.845.085 2.706.399 1.253 1.279 2.161 2.64 2.723a11.93 11.93 0 0 0 1.652.52l2.22-9.558zm-18.218 3.915c.5.195.847.459 1.042.792s.221.681.079 1.045c-.119.306-.376.507-.772.605-.421.104-.816.085-1.184-.059s-.639-.29-.809-.441-.311-.314-.406-.485c-.189-.347-.222-.679-.099-.994s.387-.52.792-.614.858-.043 1.358.151zm2.025-.678l-3.13-1.219 3.027-7.775 3.13 1.218-3.027 7.776zm-6.95-10.887a.32.32 0 0 1-.168.149c-.082.033-.163.028-.241-.013a.31.31 0 0 1-.156-.172l-.088-.25c-.255-.673-.812-1.239-1.672-1.697-.579-.309-1.015-.387-1.308-.237-.08.04-.137.092-.172.157s-.057.14-.062.215c-.011.076.001.18.037.312a3.7 3.7 0 0 0 .179.511l.346.813c.586 1.315.935 2.316 1.048 3.002.103.627.03 1.172-.217 1.637-.311.583-.841.93-1.589 1.038-.777.118-1.606-.059-2.489-.529-.621-.331-1.072-.663-1.355-.996s-.466-.6-.549-.797-.103-.339-.052-.435c.105-.198.236-.255.392-.172a.37.37 0 0 1 .166.186c.03.087.104.242.222.464s.305.458.569.693a4.11 4.11 0 0 0 .789.562c.262.14.47.197.625.173s.247-.081.291-.163a.64.64 0 0 0 .073-.254 1.2 1.2 0 0 0-.047-.343c-.075-.347-.248-.802-.52-1.366l-.653-1.499a6.11 6.11 0 0 1-.323-1.138c-.097-.582-.032-1.085.193-1.508s.497-.744.815-.964.676-.354 1.08-.416c.859-.139 1.798.064 2.819.608.818.436 1.418.956 1.798 1.56.249.386.322.676.219.869zm-14.034-9.109c-.172-.18-.357-.342-.556-.485a4.55 4.55 0 0 0-.616-.375c-.215-.103-.428-.185-.64-.247-.451-.132-.856-.179-1.216-.142-.254.023-.417.008-.488-.043-.161-.116-.19-.245-.086-.389s.358-.221.763-.232c.901.031 1.779.354 2.633.967 1.113.799 1.772 1.779 1.977 2.94.199 1.143-.08 2.241-.836 3.294-.717.999-1.667 1.567-2.849 1.705-1.172.133-2.296-.186-3.371-.958a5.27 5.27 0 0 1-1.497-1.652c-.298-.496-.375-.843-.233-1.042a.31.31 0 0 1 .217-.142c.077-.009.145.008.204.05.089.064.168.195.238.392.087.46.363.937.828 1.432a4.07 4.07 0 0 0 .6.517c.233.167.446.295.639.382l4.287-5.972zm-10.589-3.551c-.435.448-.911.777-1.427.988-.524.21-1.06.314-1.609.311-1.179-.012-2.232-.468-3.158-1.368-.946-.918-1.422-1.968-1.428-3.15-.013-1.123.405-2.122 1.254-2.996s1.857-1.33 3.013-1.354c1.193-.026 2.259.417 3.197 1.328.916.889 1.393 1.915 1.433 3.078.036 1.197-.388 2.251-1.274 3.163zm-.41-5.668a.98.98 0 0 0-.084-.093l-.078-.076c-.755-.733-1.615-1.114-2.581-1.144-1.035-.025-1.95.371-2.745 1.19-.776.799-1.15 1.696-1.12 2.69.026.983.438 1.863 1.238 2.639l.084.082a.86.86 0 0 0 .084.071l5.202-5.359zm-13.945-3.26l-2.148-2.813 2.193-4.349-2.922.551c-.619.125-1.058.245-1.319.359s-.441.156-.532.14-.171-.069-.231-.148-.085-.167-.066-.254.056-.15.109-.191a.88.88 0 0 1 .176-.105l.26-.11c.217-.068.611-.162 1.18-.283l7.606-1.484-4.306 8.687zM33.53 171.7c-.098-.178-.065-.312.099-.403.123-.068.313-.068.57-.002 1.136.313 2.051 1.096 2.743 2.35.622 1.126.806 2.262.552 3.407a3.91 3.91 0 0 1-2.02 2.678c-1.103.609-2.21.75-3.319.422-1.177-.344-2.115-1.147-2.812-2.41-.559-1.012-.721-2.032-.485-3.061.251-1.108.914-1.959 1.99-2.553l.5-.258 2.492 4.513 2.934-1.62c-.107-.345-.268-.711-.482-1.099-.453-.821-1.111-1.371-1.973-1.65a3.03 3.03 0 0 0-.42-.098c-.186-.035-.309-.107-.369-.216zm-4.128 4.662a4.11 4.11 0 0 0 .425 1.077c.206.374.395.657.566.848l2.948-1.628-1.046-1.894-2.893 1.597zm-5.616-10.496l-1.188-3.142 2.295-.868c-.96-.021-1.708-.15-2.243-.388-.542-.24-.887-.555-1.034-.945-.083-.219-.09-.414-.021-.585.062-.174.164-.288.305-.341s.261-.076.358-.069a.7.7 0 0 1 .27.074c.172.085.279.186.324.303.07.185.102.329.096.431-.011.177.005.324.05.441s.195.23.454.338.577.186.971.226c.962.099 1.915-.031 2.86-.388l3.12-1.18 1.188 3.142-7.804 2.951zm-.114-37.972a3.92 3.92 0 0 1 .744 2.193c.039 1.077-.2 1.951-.718 2.621-.532.697-1.293 1.064-2.282 1.099-.874.032-1.605-.278-2.191-.929-.592-.666-.909-1.559-.949-2.678a5.23 5.23 0 0 1 .353-2.124l-2.147.078c-.118.479-.171.9-.157 1.264l.08.912a4.96 4.96 0 0 0 .166.706c.153.479.348.839.586 1.081.141.14.213.271.217.39s-.021.212-.076.277-.127.098-.2.101-.138-.008-.197-.032a.52.52 0 0 1-.193-.142c-.141-.151-.286-.406-.434-.766-.314-.744-.484-1.496-.512-2.256-.084-2.311.415-3.807 1.495-4.487.479-.299 1.117-.462 1.913-.491l4.895-.177.121 3.341-.515.019zm-4.435.16c-.294.668-.429 1.327-.405 1.977a1.81 1.81 0 0 0 .034.296l4.965-.18a.47.47 0 0 0 .005-.086l-.003-.094c-.026-.713-.303-1.396-.832-2.049l-3.763.136zm6.008-17.084c-.095.718-.349 1.391-.763 2.019l.341.045-.421 3.183-10.959-1.448.421-3.183 3.083.407c-.27-.703-.357-1.413-.262-2.131s.284-1.333.567-1.848.637-.94 1.06-1.278c.891-.697 1.948-.964 3.172-.802 1.234.163 2.207.693 2.918 1.591.744.928 1.026 2.077.845 3.445zm-7.996-1.033c-.101.764.02 1.479.363 2.144l6.212.821c.471-.626.763-1.36.874-2.201l.027-.202c.008-.062.011-.122.008-.18l-7.358-.972a3.77 3.77 0 0 0-.125.59zm5.769-10.892c-.598-.181-1.109-.453-1.533-.815a4.22 4.22 0 0 1-1.014-1.287c-.53-1.053-.608-2.198-.233-3.434.382-1.261 1.097-2.166 2.144-2.714.992-.527 2.071-.613 3.238-.26s2.033 1.04 2.585 2.056c.569 1.049.665 2.198.286 3.45-.37 1.221-1.063 2.116-2.078 2.685-1.047.581-2.178.687-3.394.319zm4.849-2.964c.017-.038.032-.078.044-.117l.032-.105c.305-1.007.249-1.946-.167-2.818-.453-.932-1.225-1.563-2.316-1.893-1.067-.323-2.035-.244-2.905.239-.862.474-1.454 1.244-1.777 2.311l-.034.112a.64.64 0 0 0-.024.107l7.148 2.165zm5.89-13.916c-.806 1.641-2.011 2.067-3.614 1.279l-5.217-2.564 1.475-3.001 6.864 3.373c.046-.035.087-.088.121-.158l.114-.231c.184-.374.15-.942-.103-1.704a5.07 5.07 0 0 0-.291-.683l-5.637-2.77 1.482-3.015 7.488 3.68-1.482 3.015-1.08-.531c.434 1.159.394 2.263-.12 3.31zm8.686-14.997c-1.161 1.68-2.508 1.99-4.042.93L34.18 65.19l-.479.761c-.16.231-.328.286-.503.165s-.178-.306-.006-.555l.452-.599.067-.096-.996-.688.671-3.61 2.23 1.541.595-.861.396-.628c.175-.253.352-.317.532-.193.081.056.12.137.117.242a.54.54 0 0 1-.1.282l-.583.775-.489.707 6.042 4.175c.338-.507.483-1.024.435-1.551a1.16 1.16 0 0 0-.232-.654c-.141-.199-.22-.342-.235-.429-.017-.094-.001-.178.05-.25s.123-.114.219-.124.178.009.259.065a.82.82 0 0 1 .219.246c.065.108.121.242.169.401a2.78 2.78 0 0 1 .11 1.064c-.064.633-.29 1.231-.678 1.792zm4.479-22.616l2.499-2.234 1.135-1.004c.599-.487 1.065-.781 1.4-.884s.625-.157.883-.15c.563.028 1.032.251 1.407.671s.552.911.542 1.486a1.86 1.86 0 0 1-.085.526c.737-.449 1.493-.647 2.268-.593.841.058 1.552.411 2.132 1.06.59.66.895 1.411.914 2.253.019 1.17-.539 2.319-1.676 3.447l-.876.825-3.174 2.838-7.368-8.241zm6.383-.55l.328-.231.093-.083c.307-.274.472-.625.496-1.051.026-.456-.118-.859-.43-1.208-.382-.427-.86-.59-1.433-.49a1.75 1.75 0 0 0-.741.296l-.473.339-.877.742 6.608 7.391.646-.578c.66-.59 1.125-1.152 1.395-1.687.344-.615.492-1.243.443-1.884-.047-.608-.248-1.109-.602-1.505s-.711-.678-1.07-.846-.735-.248-1.126-.24c-.801.011-1.603.375-2.407 1.094l-.371.394c-.124.111-.238.167-.342.169a.3.3 0 0 1-.243-.097c-.142-.159-.107-.334.107-.525zm7.865-11.068l2.789-1.873 6.164 9.176-2.789 1.873-6.164-9.176zm12.894-.086c-.277-.56-.427-1.119-.453-1.676-.023-.564.059-1.104.246-1.62.406-1.107 1.189-1.946 2.347-2.517 1.182-.583 2.331-.68 3.447-.29 1.063.364 1.864 1.093 2.403 2.186s.63 2.195.266 3.293c-.376 1.132-1.151 1.988-2.323 2.566-1.144.565-2.271.671-3.38.318-1.139-.367-1.99-1.12-2.553-2.26zm5.478 1.514a1.02 1.02 0 0 0 .116-.048l.098-.048c.943-.466 1.591-1.148 1.943-2.048.371-.967.304-1.962-.201-2.985-.493-1-1.213-1.652-2.159-1.957-.935-.305-1.902-.211-2.901.282l-.105.052a.77.77 0 0 0-.095.055l3.305 6.698zm12.402-7.461c-.4.274-.575.49-.524.649.049.154.211.22.489.198.539-.039 1.252-.185 2.139-.437s1.567-.399 2.045-.424c.481-.032.88-.005 1.197.081.576.163.945.502 1.108 1.019.204.646.049 1.271-.465 1.875-.571.666-1.502 1.203-2.793 1.61-1.336.422-2.502.571-3.496.448-.362-.055-.573-.18-.634-.373a.26.26 0 0 1 .026-.229c.049-.07.108-.116.178-.138.084-.027.191-.025.321.005l.813.137c.25.03.62.017 1.11-.039s.949-.152 1.376-.287a7.98 7.98 0 0 0 1.032-.391c.262-.121.475-.235.638-.341.32-.216.459-.388.419-.517-.038-.119-.1-.195-.187-.228a1.14 1.14 0 0 0-.323-.062 3 3 0 0 0-.497.034c-.429.059-.999.182-1.711.368s-1.287.291-1.727.316-.812.005-1.121-.073c-.597-.145-.977-.475-1.14-.992-.235-.745.079-1.508.941-2.288a3.21 3.21 0 0 1-1.418-.651 2.53 2.53 0 0 1-.835-1.219c-.152-.482-.197-.935-.129-1.344a2.93 2.93 0 0 1 .476-1.166c.515-.774 1.319-1.334 2.411-1.678.487-.154 1-.233 1.538-.24.491-.903 1.036-1.449 1.638-1.639.253-.08.453-.096.599-.05s.247.133.287.262.028.237-.037.323a.42.42 0 0 1-.213.157 1.21 1.21 0 0 1-.357.063 1.32 1.32 0 0 0-.448.059c-.268.085-.547.378-.837.878.935.142 1.644.546 2.128 1.213.158.223.294.516.408.879s.121.748.026 1.172a3.21 3.21 0 0 1-.543 1.187c-.556.765-1.323 1.302-2.302 1.611a5.02 5.02 0 0 1-1.605.261zm1.463-.814c.802-.264 1.433-.679 1.893-1.245.533-.649.681-1.345.446-2.09s-.755-1.242-1.56-1.49c-.738-.226-1.504-.222-2.298.012l1.519 4.813zm18.46-1.905c.277-.046.433.034.466.24.016.093-.03.184-.136.276s-.301.16-.584.207l-7.177 1.178 3.305-8.42-2.321.381c-.339.056-.596.114-.771.174l-.506.146c-.103.017-.195.003-.276-.042-.077-.051-.123-.12-.137-.207-.04-.242.195-.404.703-.488l6.677-1.096-3.012 8.372 2.536-.416c.375-.062.64-.121.794-.178.185-.067.331-.11.439-.127zm13.968-.832c.281-.007.424.094.429.302.003.094-.055.178-.173.254s-.32.117-.607.124l-7.271.179 4.432-7.885-2.351.058a4.91 4.91 0 0 0-.787.066l-.522.075a.42.42 0 0 1-.268-.079c-.069-.061-.105-.136-.107-.224-.006-.245.249-.373.764-.386l6.764-.167-4.135 7.878 2.569-.063c.38-.009.651-.032.811-.067a2.61 2.61 0 0 1 .452-.066zm8.908-2.997c-.275-.027-.52-.091-.735-.191-.215-.105-.39-.24-.525-.405-.282-.331-.397-.751-.347-1.259.042-.425.252-.773.629-1.045.384-.281.84-.396 1.369-.343.544.054.967.276 1.269.667a1.62 1.62 0 0 1 .352 1.197 1.39 1.39 0 0 1-.638 1.052c-.393.27-.851.379-1.374.327zm11.902-5.311l3.156.777c1.471.363 2.525.732 3.162 1.109.724.436 1.252.896 1.583 1.38.337.485.576.96.719 1.424.293.946.31 1.943.052 2.99-.406 1.649-1.326 2.838-2.761 3.568a5.88 5.88 0 0 1-3.301.627c-.656-.06-1.553-.23-2.69-.51l-2.564-.632 2.644-10.734zm1.379 11.057l.219.062.174.043c1.37.338 2.646.199 3.828-.417 1.248-.647 2.056-1.717 2.424-3.209.232-.941.215-1.843-.049-2.707-.382-1.258-1.25-2.177-2.604-2.758-.441-.189-.99-.37-1.644-.542l-2.348 9.528zm18.269-3.673c-.497-.201-.841-.469-1.031-.805a1.15 1.15 0 0 1-.066-1.046c.123-.304.383-.502.78-.595.422-.099.817-.074 1.184.074s.635.299.803.451a1.81 1.81 0 0 1 .4.49c.184.35.213.682.086.996s-.394.515-.8.603-.859.032-1.356-.169zm-2.034.652l3.114 1.26-3.129 7.735-3.114-1.26 3.129-7.735zm6.806 10.978c.037-.069.094-.117.17-.147.083-.032.163-.026.241.016s.128.101.154.174l.084.252c.246.676.796 1.249 1.65 1.718.575.316 1.01.401 1.304.254.081-.039.139-.09.174-.154a.55.55 0 0 0 .065-.214.8.8 0 0 0-.034-.312 3.68 3.68 0 0 0-.172-.514l-.335-.817c-.568-1.323-.904-2.328-1.008-3.015-.094-.628-.014-1.173.239-1.634.319-.58.853-.919 1.603-1.018.778-.107 1.605.08 2.481.562.617.339 1.064.677 1.342 1.014s.457.605.538.804.099.34.046.435c-.108.196-.239.252-.394.166a.37.37 0 0 1-.164-.188 4.38 4.38 0 0 0-.216-.466c-.114-.223-.299-.462-.56-.7s-.522-.43-.782-.573-.468-.204-.622-.182-.248.078-.293.16a.63.63 0 0 0-.077.252 1.25 1.25 0 0 0 .043.344c.07.348.237.805.502 1.373l.633 1.507c.158.437.261.818.309 1.142.089.584.018 1.086-.213 1.506s-.507.738-.828.954-.68.345-1.085.401c-.861.127-1.798-.088-2.811-.645-.812-.447-1.405-.975-1.777-1.584-.244-.39-.313-.68-.207-.872zm13.912 9.293a3.89 3.89 0 0 0 .549.493c.201.148.404.276.611.383a4.25 4.25 0 0 0 .636.256c.449.137.853.19 1.214.158.254-.02.416-.003.487.049.16.117.187.248.082.39s-.361.216-.766.221c-.9-.043-1.774-.377-2.62-1.002-1.102-.814-1.748-1.802-1.938-2.965-.184-1.145.109-2.24.879-3.283.73-.989 1.688-1.545 2.872-1.667 1.174-.117 2.293.217 3.358 1.003a5.29 5.29 0 0 1 1.475 1.672c.291.5.364.848.219 1.045-.062.084-.135.13-.219.139-.077.008-.145-.01-.204-.053-.088-.065-.165-.197-.233-.395-.08-.461-.35-.942-.809-1.442-.165-.18-.363-.355-.593-.525s-.442-.3-.634-.391l-4.366 5.915zm10.541 3.691a4.18 4.18 0 0 1 1.44-.969 4.23 4.23 0 0 1 1.613-.29c1.178.028 2.225.497 3.14 1.409.933.93 1.395 1.986 1.386 3.169-.002 1.123-.433 2.117-1.293 2.98s-1.875 1.305-3.031 1.314c-1.193.009-2.253-.447-3.179-1.37-.903-.901-1.367-1.933-1.391-3.097-.021-1.197.418-2.245 1.315-3.145zm.335 5.673a1.24 1.24 0 0 0 .083.094l.078.077c.745.743 1.6 1.135 2.565 1.178 1.035.039 1.955-.346 2.76-1.153.787-.789 1.172-1.681 1.156-2.676-.013-.983-.414-1.868-1.203-2.655l-.083-.083a.84.84 0 0 0-.083-.072l-5.273 5.29zm13.901 3.444l2.111 2.84-2.25 4.32 2.929-.512c.62-.117 1.061-.231 1.323-.341s.443-.151.533-.134.17.072.229.151.084.169.063.255a.32.32 0 0 1-.111.19c-.054.04-.114.075-.177.102l-.262.107c-.218.065-.612.154-1.184.267l-7.625 1.384 4.421-8.629zm7.077 22.972c.096.179.061.313-.104.401-.124.066-.314.065-.57-.005-1.132-.328-2.036-1.123-2.712-2.386-.607-1.134-.776-2.273-.507-3.415a3.91 3.91 0 0 1 2.056-2.65c1.111-.595 2.219-.721 3.324-.378 1.172.359 2.099 1.175 2.779 2.447.546 1.019.694 2.042.445 3.067-.265 1.105-.94 1.947-2.024 2.527l-.503.252-2.432-4.546-2.956 1.581c.103.347.259.715.468 1.106.442.827 1.092 1.385 1.951 1.676.183.056.323.09.419.104.185.037.307.11.366.221zm4.189-4.607a4.06 4.06 0 0 0-.411-1.083c-.201-.377-.386-.662-.555-.855l-2.969 1.588 1.021 1.908 2.914-1.559zm5.476 10.569l1.147 3.158-2.306.837c.96.034 1.706.173 2.238.418.539.248.879.567 1.021.959.08.22.085.415.013.585-.064.173-.167.285-.309.337a.86.86 0 0 1-.36.064.72.72 0 0 1-.268-.077c-.171-.088-.277-.19-.32-.308-.068-.186-.098-.33-.091-.432.014-.177-.001-.324-.043-.441s-.193-.232-.45-.344c-.251-.114-.574-.193-.967-.239a6.2 6.2 0 0 0-2.865.35l-3.136 1.139-1.146-3.158 7.842-2.848zm-.941 29.007c-.514-.614-.816-1.324-.907-2.131-.12-1.072.053-1.961.518-2.668.479-.735 1.21-1.158 2.193-1.268.87-.098 1.621.156 2.255.761.641.62 1.024 1.486 1.149 2.599.083.745.019 1.46-.192 2.144l2.135-.239c.082-.487.102-.911.062-1.273l-.149-.903c-.059-.245-.132-.475-.219-.691-.188-.466-.411-.811-.666-1.034-.151-.13-.233-.254-.246-.373s.005-.213.054-.281c.056-.069.119-.108.192-.116a.46.46 0 0 1 .198.017c.065.019.133.061.203.126.152.141.316.384.491.732.369.718.596 1.455.68 2.211.258 2.298-.126 3.827-1.152 4.587-.455.334-1.079.545-1.87.634l-4.868.546-.373-3.323.512-.057zm4.41-.495c.243-.688.328-1.355.255-2.002-.011-.103-.03-.201-.056-.292l-4.938.554a.42.42 0 0 0 .002.086l.01.093c.08.709.408 1.369.985 1.981l3.742-.42zm-4.701 17.489c.04-.723.243-1.413.608-2.071l-.343-.019.18-3.206 11.037.617-.179 3.206-3.105-.173c.322.68.463 1.382.422 2.105s-.182 1.351-.426 1.885-.564.986-.96 1.355c-.836.762-1.87 1.108-3.102 1.039-1.243-.07-2.253-.525-3.03-1.367-.812-.869-1.18-1.993-1.102-3.371zm8.051.427c.043-.77-.132-1.473-.524-2.111l-6.256-.35c-.422.66-.658 1.413-.705 2.261l-.011.203c-.004.062-.002.122.005.18l7.41.415a3.84 3.84 0 0 0 .081-.598zm-4.932 11.295c.61.136 1.14.368 1.59.698s.823.737 1.109 1.206c.608 1.01.771 2.146.491 3.407-.285 1.286-.93 2.242-1.933 2.867-.95.6-2.019.768-3.209.504s-2.106-.884-2.733-1.855c-.647-1.003-.829-2.143-.545-3.419.276-1.245.9-2.19 1.87-2.834 1-.658 2.12-.849 3.36-.574zm-4.611 3.322c-.014.039-.026.079-.035.12l-.023.107c-.228 1.027-.102 1.959.379 2.797.521.895 1.339 1.466 2.452 1.713 1.088.242 2.048.09 2.879-.457.823-.537 1.356-1.35 1.598-2.438l.025-.114c.008-.036.013-.072.016-.109l-7.291-1.619zm-4.824 14.321c.68-1.697 1.85-2.213 3.508-1.549l5.395 2.163-1.244 3.104-7.099-2.846a.43.43 0 0 0-.109.167l-.096.239c-.155.387-.078.951.231 1.692.095.223.209.443.341.659l5.831 2.337-1.25 3.118-7.745-3.105 1.25-3.118 1.117.448c-.521-1.123-.564-2.226-.13-3.309zm-7.529 15.61c1.03-1.763 2.35-2.173 3.96-1.232l4.428 2.58.42-.795c.142-.243.305-.311.489-.203s.201.292.048.553l-.405.632-.06.101 1.046.611-.397 3.651-2.34-1.369-.529.904-.347.656c-.156.266-.328.343-.516.233-.086-.05-.131-.128-.136-.233-.003-.099.024-.195.079-.289l.523-.817.433-.742-6.339-3.707c-.299.532-.404 1.058-.317 1.58.028.24.122.451.28.634s.245.324.267.41c.025.093.015.177-.03.253a.29.29 0 0 1-.209.141c-.095.017-.178.005-.263-.045a.82.82 0 0 1-.237-.23 1.76 1.76 0 0 1-.199-.387c-.133-.35-.197-.701-.19-1.053.016-.636.196-1.248.541-1.837zm-2.761 22.889l-2.323 2.416-1.056 1.087c-.561.531-1.004.86-1.329.988s-.611.203-.869.216c-.563.015-1.047-.173-1.453-.563s-.619-.866-.653-1.44a1.92 1.92 0 0 1 .045-.532c-.701.504-1.44.758-2.217.762-.843.006-1.579-.293-2.206-.896-.638-.613-.998-1.339-1.081-2.177-.108-1.166.362-2.354 1.411-3.564l.811-.889 2.951-3.07 7.969 7.662zm-6.323 1.031l-.31.254-.087.09c-.285.297-.423.659-.415 1.086.009.457.183.847.521 1.172.413.397.901.524 1.466.38.286-.072.525-.189.717-.351l.445-.373.819-.807-7.147-6.871-.601.625c-.614.639-1.035 1.234-1.263 1.788-.297.639-.397 1.277-.3 1.912.093.602.331 1.087.714 1.456s.76.622 1.131.762.752.192 1.141.154c.798-.071 1.571-.495 2.318-1.272l.34-.421c.116-.12.225-.185.328-.194s.186.016.25.078c.154.148.132.325-.067.532zm-7.008 11.628l-2.639 2.078-6.839-8.685 2.639-2.078 6.839 8.685zm-12.851 1.059c.318.538.511 1.084.578 1.637.065.56.024 1.105-.123 1.634-.322 1.134-1.039 2.03-2.151 2.687-1.134.671-2.272.853-3.415.549-1.087-.283-1.94-.95-2.561-1.999s-.794-2.141-.513-3.263c.29-1.157.997-2.069 2.123-2.734 1.098-.65 2.214-.84 3.346-.572 1.164.28 2.069.967 2.716 2.061zm-5.576-1.096c-.038.017-.076.036-.111.057l-.095.055c-.905.536-1.5 1.265-1.782 2.189-.297.992-.155 1.979.425 2.961.567.96 1.334 1.556 2.301 1.789.955.234 1.913.067 2.872-.5l.101-.06a.76.76 0 0 0 .09-.062l-3.801-6.429zm-11.804 8.375c.378-.303.536-.532.474-.687-.06-.149-.227-.203-.502-.16-.535.079-1.235.279-2.1.597-.864.324-1.533.516-2.008.578-.477.068-.877.071-1.199.009-.587-.119-.98-.429-1.182-.932-.252-.629-.144-1.264.322-1.905.519-.707 1.407-1.313 2.664-1.817 1.301-.521 2.452-.758 3.453-.71.364.028.584.136.66.325.033.082.03.159-.009.23s-.099.124-.166.151a.61.61 0 0 1-.321.019l-.821-.074c-.252-.012-.62.029-1.104.122s-.935.223-1.35.39c-.421.168-.754.324-1 .467-.252.141-.456.27-.61.388-.303.239-.429.422-.379.547.047.116.115.187.204.214s.197.038.326.037a3.07 3.07 0 0 0 .493-.071c.424-.092.983-.257 1.679-.496s1.261-.388 1.698-.445.81-.066 1.123-.012c.606.099 1.01.4 1.212.903.29.725.035 1.509-.766 2.352.548.066 1.036.247 1.463.541.428.3.736.684.924 1.153s.267.917.23 1.33c-.039.42-.168.82-.386 1.199-.455.811-1.215 1.429-2.278 1.855-.474.19-.979.309-1.516.355-.421.938-.924 1.524-1.509 1.758-.247.099-.444.131-.593.095s-.256-.114-.307-.239-.046-.234.013-.325a.47.47 0 0 1 .2-.173c.131-.052.248-.082.351-.09.155-.006.303-.037.443-.093.261-.105.517-.418.768-.939-.943-.071-1.681-.421-2.213-1.049-.174-.211-.332-.493-.473-.846s-.178-.737-.114-1.166a3.23 3.23 0 0 1 .452-1.225c.496-.805 1.221-1.398 2.173-1.78a5.03 5.03 0 0 1 1.581-.381zm-1.398.922c-.779.324-1.377.785-1.793 1.384-.483.687-.578 1.393-.288 2.118s.847 1.181 1.668 1.368c.752.17 1.516.108 2.291-.185l-1.878-4.685zm-18.263 3.291c-.273.067-.435-.002-.484-.204-.022-.091.017-.186.116-.285s.288-.183.566-.25l7.068-1.716-2.66 8.645 2.285-.555c.334-.081.586-.158.756-.232l.494-.184a.41.41 0 0 1 .278.021c.081.045.131.11.152.196.058.238-.164.418-.665.539l-6.574 1.597 2.372-8.576-2.498.607c-.37.09-.629.169-.779.237-.178.081-.321.134-.427.16zm-13.866 1.884c-.28.028-.43-.061-.451-.269-.009-.093.042-.182.154-.266s.31-.141.595-.17l7.237-.727-3.824 8.197 2.34-.236c.342-.034.602-.076.78-.125l.515-.115a.42.42 0 0 1 .272.059.3.3 0 0 1 .124.216c.025.243-.22.391-.733.442l-6.731.677 3.529-8.167-2.558.257c-.378.038-.646.08-.803.127-.188.056-.337.089-.446.1z" fill="#000"/><circle cx="125" cy="125" r="124" stroke="#000" stroke-width="2"/><circle cx="125" cy="125" r="75" fill="#000"/></svg>